<svg width="38" height="24" viewBox="0 0 38 24" fill="none" xmlns="http://www.w3.org/2000/svg">
<path d="M13.416 24C12.696 24 11.984 23.792 11.28 23.376C10.592 22.976 9.712 22.352 8.64 21.504C7.84 20.864 7.152 20.344 6.576 19.944C6.016 19.56 5.4 19.232 4.728 18.96C4.072 18.688 3.4 18.552 2.712 18.552C2.472 18.552 2.288 18.56 2.16 18.576L5.736 1.944C4.664 2.376 3.832 3.04 3.24 3.936C2.664 4.816 2.376 5.896 2.376 7.176C2.376 7.768 2.432 8.184 2.544 8.424C2.656 8.648 2.712 8.776 2.712 8.808C1.848 8.808 1.2 8.632 0.768 8.28C0.352 7.912 0.144 7.312 0.144 6.48C0.144 5.456 0.56 4.464 1.392 3.504C2.24 2.528 3.32 1.744 4.632 1.152C5.944 0.544 7.256 0.24 8.568 0.24C8.792 0.24 9.112 0.256 9.528 0.287999L5.832 17.52C6.28 17.632 6.736 17.792 7.2 18C7.68 18.224 8.256 18.52 8.928 18.888C9.968 19.448 10.856 19.872 11.592 20.16C12.328 20.464 13.096 20.616 13.896 20.616C14.616 20.616 15.288 20.488 15.912 20.232C15.784 21.4 15.496 22.32 15.048 22.992C14.616 23.664 14.072 24 13.416 24ZM12.5258 18.144C11.3418 18.144 10.4218 17.84 9.76575 17.232C9.10975 16.608 8.78175 15.64 8.78175 14.328C8.78175 13.224 8.99775 12.008 9.42975 10.68C9.86175 9.352 10.5658 8.208 11.5418 7.248C12.5178 6.272 13.7578 5.784 15.2617 5.784C17.0218 5.784 17.9018 6.552 17.9018 8.088C17.9018 8.984 17.6458 9.808 17.1338 10.56C16.6218 11.312 15.9418 11.92 15.0938 12.384C14.2458 12.832 13.3418 13.088 12.3818 13.152C12.3498 13.632 12.3338 13.952 12.3338 14.112C12.3338 14.896 12.4698 15.432 12.7418 15.72C13.0138 15.992 13.4538 16.128 14.0618 16.128C14.9258 16.128 15.6618 15.928 16.2698 15.528C16.8938 15.128 17.5738 14.52 18.3098 13.704H19.1258C17.3498 16.664 15.1498 18.144 12.5258 18.144ZM12.5738 12C13.1658 11.968 13.7258 11.76 14.2538 11.376C14.7978 10.992 15.2298 10.504 15.5498 9.912C15.8858 9.32 16.0538 8.696 16.0538 8.04C16.0538 7.384 15.8538 7.056 15.4538 7.056C14.8778 7.056 14.3098 7.56 13.7498 8.568C13.2058 9.576 12.8138 10.72 12.5738 12ZM21.0407 18.144C20.1127 18.144 19.3847 17.912 18.8567 17.448C18.3447 16.968 18.0887 16.256 18.0887 15.312C18.0887 14.928 18.1287 14.544 18.2087 14.16L19.9367 6H23.3927L21.6647 14.16C21.5847 14.56 21.5447 14.848 21.5447 15.024C21.5447 15.552 21.8167 15.816 22.3607 15.816C23.0967 15.816 23.7767 15.352 24.4007 14.424C25.0407 13.496 25.5527 12.392 25.9367 11.112C26.3207 9.832 26.5127 8.728 26.5127 7.8C26.4807 7.88 26.3767 7.944 26.2007 7.992C26.0247 8.024 25.8727 8.04 25.7447 8.04C25.4727 8.04 25.2567 7.912 25.0967 7.656C24.9527 7.4 24.8807 7.12 24.8807 6.816C24.8807 6.432 25.0007 6.12 25.2407 5.88C25.4967 5.64 25.8727 5.52 26.3687 5.52C26.8967 5.52 27.2807 5.72 27.5207 6.12C27.7607 6.504 27.8807 7 27.8807 7.608C27.8807 9.048 27.6327 10.592 27.1367 12.24C26.6407 13.872 25.8807 15.264 24.8567 16.416C23.8327 17.568 22.5607 18.144 21.0407 18.144ZM31.6262 18.144C30.4582 18.144 29.5462 17.84 28.8902 17.232C28.2342 16.608 27.9062 15.64 27.9062 14.328C27.9062 13.224 28.1222 12.008 28.5542 10.68C28.9862 9.352 29.6902 8.208 30.6662 7.248C31.6422 6.272 32.8822 5.784 34.3862 5.784C36.1462 5.784 37.0262 6.552 37.0262 8.088C37.0262 8.984 36.7702 9.808 36.2582 10.56C35.7462 11.312 35.0662 11.92 34.2182 12.384C33.3702 12.832 32.4662 13.088 31.5062 13.152C31.4742 13.504 31.4582 13.744 31.4582 13.872C31.4582 15.2 31.9542 15.864 32.9462 15.864C33.3942 15.864 33.8742 15.744 34.3862 15.504C34.8982 15.264 35.3622 14.96 35.7782 14.592C35.3462 16.96 33.9622 18.144 31.6262 18.144ZM31.6742 12C32.2822 11.984 32.8502 11.784 33.3782 11.4C33.9222 11.016 34.3542 10.528 34.6742 9.936C35.0102 9.328 35.1782 8.696 35.1782 8.04C35.1782 7.384 34.9782 7.056 34.5782 7.056C34.0182 7.056 33.4582 7.568 32.8982 8.592C32.3542 9.6 31.9462 10.736 31.6742 12Z" fill="black"/>
</svg>
